<?xml version="1.0" encoding="iso-8859-1"?>
<!-- Generator: Adobe Illustrator 19.0.0, SVG Export Plug-In . SVG Version: 6.00 Build 0)  -->
<svg version="1.1" id="Capa_1" xmlns="http://www.w3.org/2000/svg" xmlns:xlink="http://www.w3.org/1999/xlink" x="0px" y="0px"
	 viewBox="0 0 512 512" style="enable-background:new 0 0 512 512;" xml:space="preserve">
<linearGradient id="SVGID_1_" gradientUnits="userSpaceOnUse" x1="256" y1="514" x2="256" y2="2" gradientTransform="matrix(1 0 0 -1 0 514)">
	<stop  offset="0" style="stop-color:#2AF598"/>
	<stop  offset="1" style="stop-color:#009EFD"/>
</linearGradient>
<path style="fill:url(#SVGID_1_);" d="M236,40h-40V0h40V40z M316,0h-40v40h40V0z M512,300v66v16v70c0,33.084-26.916,60-60,60
	s-60-26.916-60-60v-10H120v10c0,33.084-26.916,60-60,60S0,485.084,0,452v-70v-27v-55c0-22.391,12.338-41.944,30.563-52.252
	l41.195-127.51C80.154,96.17,102.921,80,128.41,80H156V40h40v40h40V40h40v40h40V40h40v40h27.59c25.489,0,48.256,16.17,56.651,40.238
	l0.146,0.437l41.078,127.09C499.676,258.078,512,277.621,512,300z M75.101,240H436.92l-34.51-106.767
	C399.562,125.31,392.023,120,383.59,120H128.41c-8.432,0-15.97,5.308-18.819,13.23L75.101,240z M80,442H60
	c-7.011,0-13.74-1.22-20-3.44V452c0,11.028,8.972,20,20,20s20-8.972,20-20V442z M472,452v-13.44c-6.26,2.22-12.989,3.44-20,3.44h-20
	v10c0,11.028,8.972,20,20,20S472,463.028,472,452z M472,366v-66c0-11.028-8.972-20-20-20H60c-11.028,0-20,8.972-20,20v55v27
	c0,11.028,8.972,20,20,20h392c11.028,0,20-8.972,20-20V366z M181,372h150v-40H181V372z M412,312c-11.046,0-20,8.954-20,20
	s8.954,20,20,20s20-8.954,20-20S423.046,312,412,312z M100,312c-11.046,0-20,8.954-20,20s8.954,20,20,20s20-8.954,20-20
	S111.046,312,100,312z"/>
<g>
</g>
<g>
</g>
<g>
</g>
<g>
</g>
<g>
</g>
<g>
</g>
<g>
</g>
<g>
</g>
<g>
</g>
<g>
</g>
<g>
</g>
<g>
</g>
<g>
</g>
<g>
</g>
<g>
</g>
</svg>
